<svg width="150" height="79" viewBox="0 0 150 79" fill="none" xmlns="http://www.w3.org/2000/svg">
<g clip-path="url(#clip0_1115_3200)">
<path d="M44.4674 65.7512V66.8558H39.848V65.7512L41.2539 65.2089L40.1693 62.2564H34.2443L33.1396 65.229L34.5657 65.7512V66.8558H30.2876V65.7512L31.6735 65.1286L36.2528 53.0375H38.5023L43.0816 65.1085L44.4674 65.7512ZM39.6471 60.8304L37.2169 54.2426L34.7665 60.8304H39.6471ZM52.5552 56.4519C53.1443 56.4519 53.5728 56.5925 53.8406 56.8737C54.1084 57.1549 54.2423 57.5901 54.2423 58.1792C54.2423 59.2638 53.6264 59.8061 52.3945 59.8061L51.5911 57.9985C51.0689 58.1324 50.54 58.3198 50.0044 58.5608C49.4822 58.7885 49.0136 59.0362 48.5985 59.304V65.1486L50.4664 65.7512V66.8558H45.5456V65.7512L46.9114 65.1486V58.4805L45.5456 57.9181V56.7733H47.775L48.5382 57.9784C49.2077 57.483 49.8906 57.108 50.5869 56.8536C51.2831 56.5858 51.9392 56.4519 52.5552 56.4519ZM60.4265 67.0165C59.1411 67.0165 58.2172 66.7554 57.6548 66.2332C57.1058 65.711 56.8313 64.8273 56.8313 63.582V58.1792H55.2647V57.0545L56.8313 56.7733L57.4339 53.861H58.5185V56.7733L61.9529 56.7934V58.1993L58.5185 58.1792V63.582C58.5185 64.131 58.5854 64.5461 58.7193 64.8273C58.8532 65.1085 59.0741 65.3026 59.3821 65.4097C59.6901 65.5169 60.1386 65.5704 60.7278 65.5704C61.183 65.5704 61.6584 65.5236 62.1538 65.4298V66.8358C61.6718 66.9563 61.096 67.0165 60.4265 67.0165ZM75.6744 65.7512V66.8558H73.4049L69.167 61.8949L66.9376 63.5419V65.1486L68.3033 65.7512V66.8558H63.8847V65.7512L65.2504 65.1486V54.3029L63.8847 53.7405V52.5957H66.9376V61.7945L71.6776 58.36L70.0105 57.9181V56.7733H75.0518V57.9181L73.686 58.5809L70.5327 60.9108L74.2082 65.1486L75.6744 65.7512ZM81.9095 56.4921C83.4493 56.4921 84.6812 56.9206 85.6051 57.7775C86.5424 58.6211 87.011 59.9668 87.011 61.8146C87.011 63.6624 86.5424 65.0147 85.6051 65.8717C84.6812 66.7152 83.4493 67.137 81.9095 67.137C80.3697 67.137 79.1311 66.7152 78.1938 65.8717C77.2699 65.0147 76.808 63.6624 76.808 61.8146C76.808 59.9668 77.2699 58.6211 78.1938 57.7775C79.1311 56.9206 80.3697 56.4921 81.9095 56.4921ZM81.9095 57.9382C81.1061 57.9382 80.4634 58.052 79.9814 58.2797C79.5127 58.5073 79.1579 58.9023 78.9169 59.4647C78.6892 60.027 78.5754 60.8103 78.5754 61.8146C78.5754 62.8188 78.6892 63.6021 78.9169 64.1645C79.1579 64.7269 79.5127 65.1219 79.9814 65.3495C80.4634 65.5771 81.1061 65.6909 81.9095 65.6909C82.7129 65.6909 83.3489 65.5771 83.8175 65.3495C84.2996 65.1219 84.6544 64.7269 84.882 64.1645C85.123 63.6021 85.2436 62.8188 85.2436 61.8146C85.2436 60.8103 85.123 60.027 84.882 59.4647C84.6544 58.9023 84.2996 58.5073 83.8175 58.2797C83.3489 58.052 82.7129 57.9382 81.9095 57.9382ZM91.8081 65.1486L93.1739 65.7512V66.8558H88.7552V65.7512L90.121 65.1486V54.3029L88.7552 53.7405V52.5957H91.8081V65.1486ZM105.703 65.7512V66.8558H103.312L102.79 65.4097C102.228 65.9721 101.625 66.3872 100.983 66.655C100.353 66.9228 99.6234 67.0567 98.7932 67.0567C97.8827 67.0567 97.1329 66.9027 96.5437 66.5947C95.968 66.2734 95.5328 65.7378 95.2382 64.988C94.9437 64.2247 94.7964 63.1803 94.7964 61.8547C94.7964 59.9668 95.1579 58.601 95.8809 57.7575C96.604 56.9139 97.635 56.4921 98.974 56.4921C99.5899 56.4921 100.193 56.5791 100.782 56.7532C101.371 56.9273 101.994 57.2085 102.65 57.5968V54.3029L101.284 53.7405V52.5957H104.337V65.1486L105.703 65.7512ZM96.5638 62.0154C96.5638 62.9393 96.6509 63.6624 96.8249 64.1846C97.0124 64.7068 97.2936 65.075 97.6685 65.2892C98.0434 65.4901 98.5321 65.5905 99.1347 65.5905C100.38 65.5905 101.552 65.1553 102.65 64.285V58.7818C101.806 58.4738 101.163 58.2596 100.722 58.1391C100.293 58.0186 99.8443 57.9583 99.3757 57.9583C98.3714 57.9583 97.6484 58.293 97.2065 58.9625C96.7781 59.6186 96.5638 60.6363 96.5638 62.0154ZM112.331 56.4921C113.871 56.4921 115.103 56.9206 116.027 57.7775C116.964 58.6211 117.433 59.9668 117.433 61.8146C117.433 63.6624 116.964 65.0147 116.027 65.8717C115.103 66.7152 113.871 67.137 112.331 67.137C110.791 67.137 109.553 66.7152 108.615 65.8717C107.691 65.0147 107.229 63.6624 107.229 61.8146C107.229 59.9668 107.691 58.6211 108.615 57.7775C109.553 56.9206 110.791 56.4921 112.331 56.4921ZM112.331 57.9382C111.528 57.9382 110.885 58.052 110.403 58.2797C109.934 58.5073 109.579 58.9023 109.338 59.4647C109.111 60.027 108.997 60.8103 108.997 61.8146C108.997 62.8188 109.111 63.6021 109.338 64.1645C109.579 64.7269 109.934 65.1219 110.403 65.3495C110.885 65.5771 111.528 65.6909 112.331 65.6909C113.134 65.6909 113.77 65.5771 114.239 65.3495C114.721 65.1219 115.076 64.7269 115.304 64.1645C115.545 63.6021 115.665 62.8188 115.665 61.8146C115.665 60.8103 115.545 60.027 115.304 59.4647C115.076 58.9023 114.721 58.5073 114.239 58.2797C113.77 58.052 113.134 57.9382 112.331 57.9382Z" fill="#373635"/>
<path d="M23.9043 13.5088H16.6606V45.381H23.9043V13.5088Z" fill="#504E59"/>
<path d="M12.7118 1.19439L7.89795 5.59082L17.4157 16.0122L22.2296 11.6158L12.7118 1.19439Z" fill="#504E59"/>
<path d="M10.6998 3.01206L15.1055 7.81738L4.40572 17.6274L5.74448e-06 12.822L10.6998 3.01206Z" fill="#504E59"/>
<path d="M23.8846 10.748H16.7192V45.3806H23.8846V10.748Z" fill="#E1C55F"/>
<path d="M12.7118 1.19439L7.89795 5.59082L17.4157 16.0122L22.2296 11.6158L12.7118 1.19439Z" fill="#E1C55F"/>
<path d="M28.6256 1.19439L33.4395 5.59082L23.9217 16.0122L19.1078 11.6158L28.6256 1.19439Z" fill="#E1C55F"/>
<path d="M10.6998 3.01206L15.1055 7.81738L4.40572 17.6274L5.74448e-06 12.822L10.6998 3.01206Z" fill="#E1C55F"/>
<path d="M30.6381 3.01207L26.2324 7.81738L36.9322 17.6274L41.3379 12.822L30.6381 3.01207Z" fill="#E1C55F"/>
<path d="M69.999 4.77734V21.4968L53.2798 8.36002V41.7984" stroke="#E1C55F" stroke-width="7.16537" stroke-linecap="square"/>
<path d="M144.638 4.77734V21.4968L127.919 8.36002V41.7984" stroke="#E1C55F" stroke-width="7.16537" stroke-linecap="square"/>
<path d="M81.9409 41.7976V28.0059L96.8701 32.8408" stroke="#E1C55F" stroke-width="7.16537" stroke-linecap="square"/>
<path d="M115.977 4.77734V17.9136L101.048 13.0786" stroke="#E1C55F" stroke-width="7.16537" stroke-linecap="square"/>
<path d="M99.1055 4.77734V41.7984" stroke="#E1C55F" stroke-width="7.16537" stroke-linecap="square"/>
</g>
<defs>
<clipPath id="clip0_1115_3200">
<rect width="150" height="79" fill="white"/>
</clipPath>
</defs>
</svg>
