<svg width="1300" height="1516" viewBox="0 0 1300 1516" fill="none" xmlns="http://www.w3.org/2000/svg">
<path opacity="0.1" fill-rule="evenodd" clip-rule="evenodd" d="M572.166 932.582L577.986 1270.8L778.937 1425.09L912.068 1256.37L782.273 1154L744.584 1209.25L823.756 1274.03L783.611 1323.24L662.216 1224.59L776.129 1069.96L998.839 1243.09L792.978 1512.04L540.985 1324.83L291.979 1515.32L81.8855 1249.09L301.835 1073.06L418.182 1226.19L298.359 1326.41L257.44 1277.74L335.579 1211.92L297.02 1157.18L168.858 1261.23L304.643 1428.19L503.133 1271.29L503.605 933.031L501.857 793.076L20.1053 798.402L-134.98 997.798L35.0608 1130.24L137.955 1001.45L82.2898 963.95L17.1649 1042.5L-32.4299 1002.57L66.7374 882.12L222.564 995.458L48.5336 1216.44L-222.511 1011.63L-34.3355 761.583L-226.446 514.021L41.332 305.686L218.838 524.369L64.8208 639.735L-36.241 520.596L12.7172 480.016L79.0775 557.709L134.144 519.481L29.2237 392.054L-138.705 526.709L19.5174 724.055L500.984 723.074L495.017 244.893L294.066 90.6054L160.936 259.328L290.73 361.689L328.419 306.448L249.248 241.664L289.392 192.455L410.788 291.104L296.874 445.732L74.1641 272.601L280.026 3.64895L532.018 190.867L781.025 0.369999L991.118 266.599L771.169 442.628L654.822 289.507L774.645 189.28L815.563 237.958L737.425 303.771L775.983 358.513L904.146 254.464L768.361 87.5012L569.87 244.403L571.467 722.931L712.383 722.645L1052.9 717.291L1207.98 517.895L1037.94 385.452L935.048 514.239L990.714 551.743L1055.84 473.189L1105.43 513.124L1006.27 633.573L850.44 520.235L1024.47 299.251L1295.51 504.06L1107.34 754.11L1299.45 1001.67L1031.67 1210.01L854.165 991.324L1008.18 875.958L1109.24 995.097L1060.29 1035.68L993.926 957.984L938.859 996.212L1043.78 1123.64L1211.71 988.984L1053.49 791.638L712.921 790.743L571.699 792.305L572.166 932.582Z" fill="#1877F2"/>
</svg>
