<svg width="150" height="79" viewBox="0 0 150 79" fill="none" xmlns="http://www.w3.org/2000/svg">
<g clip-path="url(#clip0_767_2581)">
<path d="M44.4679 65.7513V66.8559H39.8485V65.7513L41.2544 65.209L40.1698 62.2565H34.2448L33.1401 65.2291L34.5662 65.7513V66.8559H30.2881V65.7513L31.674 65.1287L36.2533 53.0376H38.5028L43.0821 65.1086L44.4679 65.7513ZM39.6476 60.8305L37.2174 54.2427L34.767 60.8305H39.6476ZM52.5557 56.452C53.1448 56.452 53.5733 56.5926 53.8411 56.8738C54.1089 57.155 54.2428 57.5902 54.2428 58.1793C54.2428 59.2639 53.6269 59.8062 52.395 59.8062L51.5916 57.9986C51.0694 58.1325 50.5405 58.3199 50.0049 58.5609C49.4827 58.7886 49.0141 59.0363 48.599 59.3041V65.1487L50.4669 65.7513V66.8559H45.5461V65.7513L46.9119 65.1487V58.4806L45.5461 57.9182V56.7734H47.7755L48.5387 57.9785C49.2082 57.4831 49.8911 57.1081 50.5874 56.8537C51.2836 56.5859 51.9397 56.452 52.5557 56.452ZM60.427 67.0166C59.1416 67.0166 58.2177 66.7555 57.6553 66.2333C57.1063 65.7111 56.8318 64.8274 56.8318 63.5821V58.1793H55.2652V57.0546L56.8318 56.7734L57.4344 53.8611H58.519V56.7734L61.9534 56.7935V58.1994L58.519 58.1793V63.5821C58.519 64.1311 58.5859 64.5462 58.7198 64.8274C58.8537 65.1086 59.0746 65.3027 59.3826 65.4098C59.6906 65.517 60.1391 65.5705 60.7283 65.5705C61.1835 65.5705 61.6589 65.5237 62.1543 65.4299V66.8359C61.6723 66.9564 61.0965 67.0166 60.427 67.0166ZM75.6749 65.7513V66.8559H73.4054L69.1675 61.895L66.9381 63.542V65.1487L68.3038 65.7513V66.8559H63.8852V65.7513L65.2509 65.1487V54.303L63.8852 53.7406V52.5958H66.9381V61.7946L71.6781 58.3601L70.011 57.9182V56.7734H75.0523V57.9182L73.6865 58.581L70.5332 60.9109L74.2087 65.1487L75.6749 65.7513ZM81.91 56.4922C83.4498 56.4922 84.6817 56.9207 85.6056 57.7776C86.5429 58.6212 87.0115 59.9669 87.0115 61.8147C87.0115 63.6625 86.5429 65.0148 85.6056 65.8718C84.6817 66.7153 83.4498 67.1371 81.91 67.1371C80.3702 67.1371 79.1316 66.7153 78.1943 65.8718C77.2704 65.0148 76.8085 63.6625 76.8085 61.8147C76.8085 59.9669 77.2704 58.6212 78.1943 57.7776C79.1316 56.9207 80.3702 56.4922 81.91 56.4922ZM81.91 57.9383C81.1066 57.9383 80.4639 58.0521 79.9819 58.2798C79.5132 58.5074 79.1584 58.9024 78.9174 59.4648C78.6897 60.0271 78.5759 60.8104 78.5759 61.8147C78.5759 62.8189 78.6897 63.6022 78.9174 64.1646C79.1584 64.727 79.5132 65.122 79.9819 65.3496C80.4639 65.5772 81.1066 65.691 81.91 65.691C82.7134 65.691 83.3494 65.5772 83.818 65.3496C84.3001 65.122 84.6549 64.727 84.8825 64.1646C85.1235 63.6022 85.2441 62.8189 85.2441 61.8147C85.2441 60.8104 85.1235 60.0271 84.8825 59.4648C84.6549 58.9024 84.3001 58.5074 83.818 58.2798C83.3494 58.0521 82.7134 57.9383 81.91 57.9383ZM91.8086 65.1487L93.1744 65.7513V66.8559H88.7557V65.7513L90.1215 65.1487V54.303L88.7557 53.7406V52.5958H91.8086V65.1487ZM105.703 65.7513V66.8559H103.312L102.79 65.4098C102.228 65.9722 101.625 66.3873 100.983 66.6551C100.353 66.9229 99.6239 67.0568 98.7937 67.0568C97.8832 67.0568 97.1334 66.9028 96.5442 66.5948C95.9685 66.2735 95.5333 65.7379 95.2387 64.9881C94.9442 64.2248 94.7969 63.1804 94.7969 61.8548C94.7969 59.9669 95.1584 58.6011 95.8814 57.7576C96.6045 56.914 97.6355 56.4922 98.9745 56.4922C99.5904 56.4922 100.193 56.5792 100.782 56.7533C101.371 56.9274 101.994 57.2086 102.65 57.5969V54.303L101.284 53.7406V52.5958H104.337V65.1487L105.703 65.7513ZM96.5643 62.0155C96.5643 62.9394 96.6514 63.6625 96.8254 64.1847C97.0129 64.7069 97.2941 65.0751 97.669 65.2893C98.0439 65.4902 98.5326 65.5906 99.1352 65.5906C100.38 65.5906 101.552 65.1554 102.65 64.2851V58.7819C101.806 58.4739 101.163 58.2597 100.722 58.1392C100.293 58.0187 99.8448 57.9584 99.3762 57.9584C98.3719 57.9584 97.6489 58.2931 97.207 58.9626C96.7786 59.6187 96.5643 60.6364 96.5643 62.0155ZM112.331 56.4922C113.871 56.4922 115.103 56.9207 116.027 57.7776C116.964 58.6212 117.433 59.9669 117.433 61.8147C117.433 63.6625 116.964 65.0148 116.027 65.8718C115.103 66.7153 113.871 67.1371 112.331 67.1371C110.791 67.1371 109.553 66.7153 108.615 65.8718C107.691 65.0148 107.229 63.6625 107.229 61.8147C107.229 59.9669 107.691 58.6212 108.615 57.7776C109.553 56.9207 110.791 56.4922 112.331 56.4922ZM112.331 57.9383C111.528 57.9383 110.885 58.0521 110.403 58.2798C109.934 58.5074 109.579 58.9024 109.338 59.4648C109.111 60.0271 108.997 60.8104 108.997 61.8147C108.997 62.8189 109.111 63.6022 109.338 64.1646C109.579 64.727 109.934 65.122 110.403 65.3496C110.885 65.5772 111.528 65.691 112.331 65.691C113.134 65.691 113.77 65.5772 114.239 65.3496C114.721 65.122 115.076 64.727 115.304 64.1646C115.545 63.6022 115.665 62.8189 115.665 61.8147C115.665 60.8104 115.545 60.0271 115.304 59.4648C115.076 58.9024 114.721 58.5074 114.239 58.2798C113.77 58.0521 113.134 57.9383 112.331 57.9383Z" fill="white"/>
<path d="M23.9038 13.5085H16.6602V45.3807H23.9038V13.5085Z" fill="#504E59"/>
<path d="M12.7123 1.19421L7.89844 5.59064L17.4162 16.012L22.23 11.6156L12.7123 1.19421Z" fill="#504E59"/>
<path d="M10.6998 3.01219L15.1055 7.8175L4.40572 17.6275L5.74448e-06 12.8222L10.6998 3.01219Z" fill="#504E59"/>
<path d="M23.8841 10.748H16.7188V45.3806H23.8841V10.748Z" fill="#E1C55F"/>
<path d="M12.7113 1.19421L7.89746 5.59064L17.4153 16.012L22.2291 11.6156L12.7113 1.19421Z" fill="#E1C55F"/>
<path d="M28.6256 1.19451L33.4395 5.59094L23.9217 16.0123L19.1078 11.6159L28.6256 1.19451Z" fill="#E1C55F"/>
<path d="M10.6998 3.01219L15.1055 7.8175L4.40572 17.6275L5.74448e-06 12.8222L10.6998 3.01219Z" fill="#E1C55F"/>
<path d="M30.6381 3.01194L26.2324 7.81726L36.9322 17.6272L41.3379 12.8219L30.6381 3.01194Z" fill="#E1C55F"/>
<path d="M69.9985 4.77692V21.4964L53.2793 8.3596V41.798" stroke="#E1C55F" stroke-width="7.16537" stroke-linecap="square"/>
<path d="M144.638 4.77692V21.4964L127.919 8.3596V41.798" stroke="#E1C55F" stroke-width="7.16537" stroke-linecap="square"/>
<path d="M81.9414 41.7978V28.0061L96.8706 32.841" stroke="#E1C55F" stroke-width="7.16537" stroke-linecap="square"/>
<path d="M115.977 4.77692V17.9132L101.048 13.0782" stroke="#E1C55F" stroke-width="7.16537" stroke-linecap="square"/>
<path d="M99.1055 4.77692V41.798" stroke="#E1C55F" stroke-width="7.16537" stroke-linecap="square"/>
</g>
<defs>
<clipPath id="clip0_767_2581">
<rect width="150" height="79" fill="white"/>
</clipPath>
</defs>
</svg>
